<?xml version="1.0" encoding="utf-8"?>
<!-- Generator: Adobe Illustrator 24.1.3, SVG Export Plug-In . SVG Version: 6.00 Build 0)  -->
<svg version="1.1" id="Capa_1" xmlns="http://www.w3.org/2000/svg" xmlns:xlink="http://www.w3.org/1999/xlink" x="0px" y="0px"
	 viewBox="0 0 32 32" style="enable-background:new 0 0 32 32;" xml:space="preserve">
<style type="text/css">
	.st0{fill:#E62D27;}
</style>
<path class="st0" d="M15,2C6.7,2,0,8.7,0,17s6.7,15,15,15s15-6.7,15-15S23.3,2,15,2z M15,29C8.4,29,3,23.6,3,17S8.4,5,15,5
	s12,5.4,12,12S21.6,29,15,29z M16,16v-4h4v-2h-4V8h-2v2h-4v8h4v4h-4v2h4v2h2v-2h4v-8H16z M14,16h-2v-4h2V16z M18,22h-2v-4h2V22z"/>
</svg>
