<?xml version="1.0" encoding="utf-8"?>
<!-- Generator: Adobe Illustrator 24.1.3, SVG Export Plug-In . SVG Version: 6.00 Build 0)  -->
<svg version="1.1" id="Capa_1" xmlns="http://www.w3.org/2000/svg" xmlns:xlink="http://www.w3.org/1999/xlink" x="0px" y="0px"
	 viewBox="0 0 32 32" style="enable-background:new 0 0 32 32;" xml:space="preserve">
<style type="text/css">
	.st0{fill:#E62D27;}
</style>
<path class="st0" d="M18,10l4,4l-8,8l-4-4L18,10z M31.3,9.3L29,7l-1,1c-0.5,0.5-1.2,0.8-2,0.8c-1.6,0-2.8-1.3-2.8-2.8
	c0-0.8,0.3-1.5,0.8-2l1-1l-2.3-2.3c-0.9-0.9-2.5-0.9-3.4,0L0.7,19.3c-0.9,0.9-0.9,2.5,0,3.4L3,25l1-1c0.5-0.5,1.2-0.8,2-0.8
	c1.6,0,2.8,1.3,2.8,2.8c0,0.8-0.3,1.5-0.8,2l-1,1l2.3,2.3c0.9,0.9,2.5,0.9,3.4,0l18.6-18.6C32.2,11.8,32.2,10.2,31.3,9.3L31.3,9.3z
	 M14,26l-8-8L18,6l8,8L14,26z"/>
</svg>
