<?xml version="1.0" encoding="utf-8"?>
<!-- Generator: Adobe Illustrator 24.1.3, SVG Export Plug-In . SVG Version: 6.00 Build 0)  -->
<svg version="1.1" id="Capa_1" xmlns="http://www.w3.org/2000/svg" xmlns:xlink="http://www.w3.org/1999/xlink" x="0px" y="0px"
	 viewBox="0 0 32 32" style="enable-background:new 0 0 32 32;" xml:space="preserve">
<style type="text/css">
	.st0{fill:#E62D27;}
</style>
<path class="st0" d="M12,23c0-4.7,3-8.8,7.2-10.3C19.7,11.5,20,10.3,20,9c0-5,0-9-6-9S8,4,8,9c0,3.1,1.8,6.2,4,7.4v1.6
	C5.2,18.6,0,22,0,26h12.4C12.1,25,12,24,12,23L12,23z"/>
<path class="st0" d="M23,14c-5,0-9,4-9,9s4,9,9,9s9-4,9-9S28,14,23,14z M28,24h-4v4h-2v-4h-4v-2h4v-4h2v4h4V24z"/>
</svg>
